<?xml version="1.0" encoding="UTF-8" standalone="no"?>
<!-- Created with Inkscape (http://www.inkscape.org/) -->

<svg
   xmlns:dc="http://purl.org/dc/elements/1.1/"
   xmlns:cc="http://creativecommons.org/ns#"
   xmlns:rdf="http://www.w3.org/1999/02/22-rdf-syntax-ns#"
   xmlns:svg="http://www.w3.org/2000/svg"
   xmlns="http://www.w3.org/2000/svg"
   xmlns:sodipodi="http://sodipodi.sourceforge.net/DTD/sodipodi-0.dtd"
   xmlns:inkscape="http://www.inkscape.org/namespaces/inkscape"
   width="100mm"
   height="100mm"
   viewBox="0 0 100 100"
   version="1.1"
   id="svg8"
   inkscape:version="0.92.4 (5da689c313, 2019-01-14)"
   sodipodi:docname="logo avec arche.svg">
  <defs
     id="defs2">
    <inkscape:path-effect
       effect="spiro"
       id="path-effect4824"
       is_visible="true" />
    <inkscape:path-effect
       effect="bspline"
       id="path-effect4820"
       is_visible="true"
       weight="33.333333"
       steps="2"
       helper_size="0"
       apply_no_weight="true"
       apply_with_weight="true"
       only_selected="false" />
    <inkscape:path-effect
       effect="spiro"
       id="path-effect4526"
       is_visible="true" />
    <inkscape:path-effect
       effect="spiro"
       id="path-effect4526-9"
       is_visible="true" />
    <inkscape:path-effect
       effect="spiro"
       id="path-effect4526-9-3"
       is_visible="true" />
    <inkscape:path-effect
       effect="spiro"
       id="path-effect4526-3"
       is_visible="true" />
    <inkscape:path-effect
       effect="spiro"
       id="path-effect4526-5"
       is_visible="true" />
    <inkscape:path-effect
       effect="spiro"
       id="path-effect4526-9-8"
       is_visible="true" />
    <inkscape:path-effect
       effect="spiro"
       id="path-effect4526-0"
       is_visible="true" />
    <inkscape:path-effect
       effect="spiro"
       id="path-effect4526-90"
       is_visible="true" />
    <inkscape:path-effect
       effect="spiro"
       id="path-effect4526-0-9"
       is_visible="true" />
    <inkscape:path-effect
       effect="spiro"
       id="path-effect4526-0-96"
       is_visible="true" />
    <inkscape:path-effect
       effect="spiro"
       id="path-effect4526-4"
       is_visible="true" />
    <inkscape:path-effect
       effect="spiro"
       id="path-effect4824-9"
       is_visible="true" />
    <inkscape:path-effect
       effect="spiro"
       id="path-effect4824-9-9"
       is_visible="true" />
    <inkscape:path-effect
       effect="spiro"
       id="path-effect4824-4"
       is_visible="true" />
  </defs>
  <sodipodi:namedview
     id="base"
     pagecolor="#ffffff"
     bordercolor="#666666"
     borderopacity="1.0"
     inkscape:pageopacity="0.0"
     inkscape:pageshadow="2"
     inkscape:zoom="2"
     inkscape:cx="159.9305"
     inkscape:cy="210.82431"
     inkscape:document-units="mm"
     inkscape:current-layer="layer1"
     showgrid="false"
     inkscape:window-width="1920"
     inkscape:window-height="1001"
     inkscape:window-x="-9"
     inkscape:window-y="-9"
     inkscape:window-maximized="1" />
  <metadata
     id="metadata5">
    <rdf:RDF>
      <cc:Work
         rdf:about="">
        <dc:format>image/svg+xml</dc:format>
        <dc:type
           rdf:resource="http://purl.org/dc/dcmitype/StillImage" />
        <dc:title></dc:title>
      </cc:Work>
    </rdf:RDF>
  </metadata>
  <g
     inkscape:label="Calque 1"
     inkscape:groupmode="layer"
     id="layer1"
     transform="translate(0,-197)">
    <rect
       style="fill:#000000;fill-opacity:1;stroke:none;stroke-width:6;stroke-linejoin:miter;stroke-miterlimit:4;stroke-dasharray:none;stroke-opacity:1"
       id="rect4522"
       width="31.425049"
       height="44.872047"
       x="34.35041"
       y="224.56398"
       rx="0.2" />
    <path
       style="opacity:1;vector-effect:none;fill:none;fill-opacity:1;stroke:#000000;stroke-width:0.565;stroke-linecap:butt;stroke-linejoin:miter;stroke-miterlimit:4;stroke-dasharray:none;stroke-dashoffset:0;stroke-opacity:1"
       d="m 36.138807,221.83567 c 0.280606,0.0574 0.533499,0.23875 0.677814,0.48615 0.144314,0.24739 0.177722,0.55681 0.08954,0.82931 -0.100177,0.30957 -0.353887,0.56201 -0.659148,0.67463 -0.305261,0.11262 -0.655491,0.0877 -0.948645,-0.0534 -0.283361,-0.13645 -0.512598,-0.37744 -0.646446,-0.66204 -0.133848,-0.2846 -0.173585,-0.61051 -0.124875,-0.92122 0.04871,-0.31071 0.184156,-0.60571 0.377809,-0.85352 0.193652,-0.24782 0.44443,-0.44893 0.722378,-0.5961 0.424757,-0.2249 0.910201,-0.32352 1.390814,-0.32052 0.480612,0.003 0.957117,0.10495 1.411192,0.26248 0.90815,0.31504 1.722589,0.84573 2.569486,1.30043 1.026745,0.55126 2.118082,0.997 3.261206,1.22365 1.143123,0.22664 2.341577,0.22863 3.462293,-0.0909 0.433058,-0.12347 0.85835,-0.29737 1.213668,-0.57401 0.355318,-0.27665 0.637101,-0.66481 0.722992,-1.10686 0.06643,-0.34191 0.011,-0.70716 -0.158954,-1.01118 -0.169956,-0.30402 -0.454024,-0.54359 -0.784235,-0.65438 -0.33021,-0.1108 -0.703526,-0.0904 -1.017258,0.0609 -0.313732,0.15128 -0.563307,0.43283 -0.670488,0.76423 -0.08087,0.25004 -0.07988,0.53083 0.02932,0.76985 0.0546,0.11951 0.135539,0.22736 0.237439,0.31032 0.1019,0.083 0.22483,0.14059 0.354432,0.16222 0.129374,0.0216 0.2646,0.007 0.38636,-0.0418 0.12176,-0.0488 0.229699,-0.13153 0.308397,-0.23646 0.0787,-0.10493 0.127924,-0.23172 0.140647,-0.36227 0.01272,-0.13054 -0.01109,-0.26446 -0.06805,-0.38261"
       id="path4524"
       inkscape:connector-curvature="0"
       inkscape:path-effect="#path-effect4526"
       inkscape:original-d="m 36.138807,221.83567 c 0.231691,0.43822 0.511834,0.87671 0.767355,1.31546 0.255522,0.43876 -1.071596,0.41387 -1.607793,0.62119 -0.536194,0.20733 0.219509,-2.02218 0.328866,-3.03288 0.109358,-1.01069 3.58126,0.828 5.371492,1.24239 1.790234,0.41439 4.482597,0.75491 6.723499,1.13276 2.240902,0.37786 1.291373,-1.12085 1.93666,-1.68087 0.645289,-0.56003 -1.75369,-0.56056 -2.630935,-0.84044 -0.877242,-0.27988 0.414393,0.82799 0.621194,1.24239 0.206799,0.41439 0.511834,-0.68236 0.767355,-1.02315"
       transform="matrix(1,0,0,-1,-0.33470452,443.52946)" />
    <path
       style="opacity:1;vector-effect:none;fill:#000000;fill-opacity:1;stroke:none;stroke-width:6;stroke-linecap:butt;stroke-linejoin:miter;stroke-miterlimit:4;stroke-dasharray:none;stroke-dashoffset:0;stroke-opacity:1"
       d="m 28.082462,229.63284 v 34.73432 a 7.0114582,17.528646 0 0 0 2.672704,-2.30012 v -30.12116 a 7.0114582,17.528646 0 0 0 -2.672704,-2.31304 z m -2.248959,0.17778 a 7.0114582,17.528646 0 0 0 -5.661669,17.19585 7.0114582,17.528646 0 0 0 5.661669,17.18447 z"
       id="path4592"
       inkscape:connector-curvature="0" />
    <rect
       style="opacity:1;vector-effect:none;fill:#ffffff;fill-opacity:1;stroke:none;stroke-width:6;stroke-linecap:butt;stroke-linejoin:miter;stroke-miterlimit:4;stroke-dasharray:none;stroke-dashoffset:0;stroke-opacity:1"
       id="rect4594-7"
       width="4.3656249"
       height="43.52396"
       x="-72.079323"
       y="225.23802"
       rx="0.89999872"
       transform="scale(-1,1)" />
    <rect
       style="opacity:1;vector-effect:none;fill:#ffffff;fill-opacity:1;stroke:none;stroke-width:5.23128748;stroke-linecap:butt;stroke-linejoin:miter;stroke-miterlimit:4;stroke-dasharray:none;stroke-dashoffset:0;stroke-opacity:1"
       id="rect4594-1-7"
       width="2.2489583"
       height="64.225601"
       x="-77.000923"
       y="214.88721"
       rx="0.46363568"
       transform="scale(-1,1)" />
    <path
       style="opacity:1;vector-effect:none;fill:#000000;fill-opacity:1;stroke:none;stroke-width:6;stroke-linecap:butt;stroke-linejoin:miter;stroke-miterlimit:4;stroke-dasharray:none;stroke-dashoffset:0;stroke-opacity:1"
       d="m 71.917538,229.63284 v 34.73432 a 7.0114583,17.528646 0 0 1 -2.672704,-2.30012 v -30.12116 a 7.0114583,17.528646 0 0 1 2.672704,-2.31304 z m 2.248959,0.17777 a 7.0114583,17.528646 0 0 1 5.661669,17.19585 7.0114583,17.528646 0 0 1 -5.661669,17.18447 z"
       id="path4592-0"
       inkscape:connector-curvature="0" />
    <path
       style="opacity:1;vector-effect:none;fill:none;fill-opacity:1;stroke:#000000;stroke-width:0.565;stroke-linecap:butt;stroke-linejoin:miter;stroke-miterlimit:4;stroke-dasharray:none;stroke-dashoffset:0;stroke-opacity:1"
       d="m 36.138807,221.83567 c 0.280606,0.0574 0.533499,0.23875 0.677814,0.48615 0.144314,0.24739 0.177722,0.55681 0.08954,0.82931 -0.100177,0.30957 -0.353887,0.56201 -0.659148,0.67463 -0.305261,0.11262 -0.655491,0.0877 -0.948645,-0.0534 -0.283361,-0.13645 -0.512598,-0.37744 -0.646446,-0.66204 -0.133848,-0.2846 -0.173585,-0.61051 -0.124875,-0.92122 0.04871,-0.31071 0.184156,-0.60571 0.377809,-0.85352 0.193652,-0.24782 0.44443,-0.44893 0.722378,-0.5961 0.424757,-0.2249 0.910201,-0.32352 1.390814,-0.32052 0.480612,0.003 0.957117,0.10495 1.411192,0.26248 0.90815,0.31504 1.722589,0.84573 2.569486,1.30043 1.026745,0.55126 2.118082,0.997 3.261206,1.22365 1.143123,0.22664 2.341577,0.22863 3.462293,-0.0909 0.433058,-0.12347 0.85835,-0.29737 1.213668,-0.57401 0.355318,-0.27665 0.637101,-0.66481 0.722992,-1.10686 0.06643,-0.34191 0.011,-0.70716 -0.158954,-1.01118 -0.169956,-0.30402 -0.454024,-0.54359 -0.784235,-0.65438 -0.33021,-0.1108 -0.703526,-0.0904 -1.017258,0.0609 -0.313732,0.15128 -0.563307,0.43283 -0.670488,0.76423 -0.08087,0.25004 -0.07988,0.53083 0.02932,0.76985 0.0546,0.11951 0.135539,0.22736 0.237439,0.31032 0.1019,0.083 0.22483,0.14059 0.354432,0.16222 0.129374,0.0216 0.2646,0.007 0.38636,-0.0418 0.12176,-0.0488 0.229699,-0.13153 0.308397,-0.23646 0.0787,-0.10493 0.127924,-0.23172 0.140647,-0.36227 0.01272,-0.13054 -0.01109,-0.26446 -0.06805,-0.38261"
       id="path4524-3"
       inkscape:connector-curvature="0"
       inkscape:path-effect="#path-effect4526-0"
       inkscape:original-d="m 36.138807,221.83567 c 0.231691,0.43822 0.511834,0.87671 0.767355,1.31546 0.255522,0.43876 -1.071596,0.41387 -1.607793,0.62119 -0.536194,0.20733 0.219509,-2.02218 0.328866,-3.03288 0.109358,-1.01069 3.58126,0.828 5.371492,1.24239 1.790234,0.41439 4.482597,0.75491 6.723499,1.13276 2.240902,0.37786 1.291373,-1.12085 1.93666,-1.68087 0.645289,-0.56003 -1.75369,-0.56056 -2.630935,-0.84044 -0.877242,-0.27988 0.414393,0.82799 0.621194,1.24239 0.206799,0.41439 0.511834,-0.68236 0.767355,-1.02315"
       transform="rotate(-180,50.167355,221.76473)" />
    <path
       style="opacity:1;vector-effect:none;fill:none;fill-opacity:1;stroke:#000000;stroke-width:0.565;stroke-linecap:butt;stroke-linejoin:miter;stroke-miterlimit:4;stroke-dasharray:none;stroke-dashoffset:0;stroke-opacity:1"
       d="m 36.138807,221.83567 c 0.280606,0.0574 0.533499,0.23875 0.677814,0.48615 0.144314,0.24739 0.177722,0.55681 0.08954,0.82931 -0.100177,0.30957 -0.353887,0.56201 -0.659148,0.67463 -0.305261,0.11262 -0.655491,0.0877 -0.948645,-0.0534 -0.283361,-0.13645 -0.512598,-0.37744 -0.646446,-0.66204 -0.133848,-0.2846 -0.173585,-0.61051 -0.124875,-0.92122 0.04871,-0.31071 0.184156,-0.60571 0.377809,-0.85352 0.193652,-0.24782 0.44443,-0.44893 0.722378,-0.5961 0.424757,-0.2249 0.910201,-0.32352 1.390814,-0.32052 0.480612,0.003 0.957117,0.10495 1.411192,0.26248 0.90815,0.31504 1.722589,0.84573 2.569486,1.30043 1.026745,0.55126 2.118082,0.997 3.261206,1.22365 1.143123,0.22664 2.341577,0.22863 3.462293,-0.0909 0.433058,-0.12347 0.85835,-0.29737 1.213668,-0.57401 0.355318,-0.27665 0.637101,-0.66481 0.722992,-1.10686 0.06643,-0.34191 0.011,-0.70716 -0.158954,-1.01118 -0.169956,-0.30402 -0.454024,-0.54359 -0.784235,-0.65438 -0.33021,-0.1108 -0.703526,-0.0904 -1.017258,0.0609 -0.313732,0.15128 -0.563307,0.43283 -0.670488,0.76423 -0.08087,0.25004 -0.07988,0.53083 0.02932,0.76985 0.0546,0.11951 0.135539,0.22736 0.237439,0.31032 0.1019,0.083 0.22483,0.14059 0.354432,0.16222 0.129374,0.0216 0.2646,0.007 0.38636,-0.0418 0.12176,-0.0488 0.229699,-0.13153 0.308397,-0.23646 0.0787,-0.10493 0.127924,-0.23172 0.140647,-0.36227 0.01272,-0.13054 -0.01109,-0.26446 -0.06805,-0.38261"
       id="path4524-4"
       inkscape:connector-curvature="0"
       inkscape:path-effect="#path-effect4526-4"
       inkscape:original-d="m 36.138807,221.83567 c 0.231691,0.43822 0.511834,0.87671 0.767355,1.31546 0.255522,0.43876 -1.071596,0.41387 -1.607793,0.62119 -0.536194,0.20733 0.219509,-2.02218 0.328866,-3.03288 0.109358,-1.01069 3.58126,0.828 5.371492,1.24239 1.790234,0.41439 4.482597,0.75491 6.723499,1.13276 2.240902,0.37786 1.291373,-1.12085 1.93666,-1.68087 0.645289,-0.56003 -1.75369,-0.56056 -2.630935,-0.84044 -0.877242,-0.27988 0.414393,0.82799 0.621194,1.24239 0.206799,0.41439 0.511834,-0.68236 0.767355,-1.02315"
       transform="translate(-0.33471162,50.470113)" />
    <path
       style="opacity:1;vector-effect:none;fill:none;fill-opacity:1;stroke:#000000;stroke-width:0.565;stroke-linecap:butt;stroke-linejoin:miter;stroke-miterlimit:4;stroke-dasharray:none;stroke-dashoffset:0;stroke-opacity:1"
       d="m 36.138807,221.83567 c 0.280606,0.0574 0.533499,0.23875 0.677814,0.48615 0.144314,0.24739 0.177722,0.55681 0.08954,0.82931 -0.100177,0.30957 -0.353887,0.56201 -0.659148,0.67463 -0.305261,0.11262 -0.655491,0.0877 -0.948645,-0.0534 -0.283361,-0.13645 -0.512598,-0.37744 -0.646446,-0.66204 -0.133848,-0.2846 -0.173585,-0.61051 -0.124875,-0.92122 0.04871,-0.31071 0.184156,-0.60571 0.377809,-0.85352 0.193652,-0.24782 0.44443,-0.44893 0.722378,-0.5961 0.424757,-0.2249 0.910201,-0.32352 1.390814,-0.32052 0.480612,0.003 0.957117,0.10495 1.411192,0.26248 0.90815,0.31504 1.722589,0.84573 2.569486,1.30043 1.026745,0.55126 2.118082,0.997 3.261206,1.22365 1.143123,0.22664 2.341577,0.22863 3.462293,-0.0909 0.433058,-0.12347 0.85835,-0.29737 1.213668,-0.57401 0.355318,-0.27665 0.637101,-0.66481 0.722992,-1.10686 0.06643,-0.34191 0.011,-0.70716 -0.158954,-1.01118 -0.169956,-0.30402 -0.454024,-0.54359 -0.784235,-0.65438 -0.33021,-0.1108 -0.703526,-0.0904 -1.017258,0.0609 -0.313732,0.15128 -0.563307,0.43283 -0.670488,0.76423 -0.08087,0.25004 -0.07988,0.53083 0.02932,0.76985 0.0546,0.11951 0.135539,0.22736 0.237439,0.31032 0.1019,0.083 0.22483,0.14059 0.354432,0.16222 0.129374,0.0216 0.2646,0.007 0.38636,-0.0418 0.12176,-0.0488 0.229699,-0.13153 0.308397,-0.23646 0.0787,-0.10493 0.127924,-0.23172 0.140647,-0.36227 0.01272,-0.13054 -0.01109,-0.26446 -0.06805,-0.38261"
       id="path4524-3-7"
       inkscape:connector-curvature="0"
       inkscape:path-effect="#path-effect4526-0-96"
       inkscape:original-d="m 36.138807,221.83567 c 0.231691,0.43822 0.511834,0.87671 0.767355,1.31546 0.255522,0.43876 -1.071596,0.41387 -1.607793,0.62119 -0.536194,0.20733 0.219509,-2.02218 0.328866,-3.03288 0.109358,-1.01069 3.58126,0.828 5.371492,1.24239 1.790234,0.41439 4.482597,0.75491 6.723499,1.13276 2.240902,0.37786 1.291373,-1.12085 1.93666,-1.68087 0.645289,-0.56003 -1.75369,-0.56056 -2.630935,-0.84044 -0.877242,-0.27988 0.414393,0.82799 0.621194,1.24239 0.206799,0.41439 0.511834,-0.68236 0.767355,-1.02315"
       transform="matrix(-1,0,0,1,100.33471,50.470544)" />
    <path
       style="fill:none;stroke:#000000;stroke-width:0.53315991;stroke-linecap:butt;stroke-linejoin:miter;stroke-miterlimit:4;stroke-dasharray:none;stroke-opacity:1"
       d="m 25.833503,229.81062 c -0.658141,-3.76813 -0.295811,-7.7095 1.038302,-11.29448 1.334113,-3.58499 3.636569,-6.80435 6.597986,-9.22551 3.912099,-3.1984 8.970244,-4.96398 14.022917,-4.8948"
       id="path4822"
       inkscape:connector-curvature="0"
       inkscape:path-effect="#path-effect4824"
       inkscape:original-d="m 25.833503,229.81062 c 2.457498,-6.79617 5.091124,-13.68026 7.636288,-20.51999 2.545165,-6.83974 9.348875,-3.26346 14.022917,-4.8948"
       transform="matrix(1.1230057,0,0,1,-3.334585,0.84210365)" />
    <path
       transform="matrix(-1.1230057,0,0,1,103.33458,0.84210365)"
       style="fill:none;stroke:#000000;stroke-width:0.53315991;stroke-linecap:butt;stroke-linejoin:miter;stroke-miterlimit:4;stroke-dasharray:none;stroke-opacity:1"
       d="m 25.833503,229.81062 c -0.658141,-3.76813 -0.295811,-7.7095 1.038302,-11.29448 1.334113,-3.58499 3.636569,-6.80435 6.597986,-9.22551 3.912099,-3.1984 8.970244,-4.96398 14.022917,-4.8948"
       id="path4822-5"
       inkscape:connector-curvature="0"
       inkscape:path-effect="#path-effect4824-9"
       inkscape:original-d="m 25.833503,229.81062 c 2.457498,-6.79617 5.091124,-13.68026 7.636288,-20.51999 2.545165,-6.83974 9.348875,-3.26346 14.022917,-4.8948" />
    <path
       style="fill:none;stroke:#000000;stroke-width:0.6074912;stroke-linecap:butt;stroke-linejoin:miter;stroke-miterlimit:4;stroke-dasharray:none;stroke-opacity:1"
       d="m 25.833503,229.81062 c -0.658141,-3.76813 -0.295811,-7.7095 1.038302,-11.29448 1.334113,-3.58499 3.636569,-6.80435 6.597986,-9.22551 3.912099,-3.1984 8.970244,-4.96398 14.022917,-4.8948"
       id="path4822-4"
       inkscape:connector-curvature="0"
       inkscape:path-effect="#path-effect4824-4"
       inkscape:original-d="m 25.833503,229.81062 c 2.457498,-6.79617 5.091124,-13.68026 7.636288,-20.51999 2.545165,-6.83974 9.348875,-3.26346 14.022917,-4.8948"
       transform="matrix(0.99692275,0,0,0.88972298,2.6534426,26.557052)" />
    <path
       transform="matrix(-0.99692275,0,0,0.88972298,97.346559,26.557052)"
       style="fill:none;stroke:#000000;stroke-width:0.6074912;stroke-linecap:butt;stroke-linejoin:miter;stroke-miterlimit:4;stroke-dasharray:none;stroke-opacity:1"
       d="m 25.833503,229.81062 c -0.658141,-3.76813 -0.295811,-7.7095 1.038302,-11.29448 1.334113,-3.58499 3.636569,-6.80435 6.597986,-9.22551 3.912099,-3.1984 8.970244,-4.96398 14.022917,-4.8948"
       id="path4822-5-2"
       inkscape:connector-curvature="0"
       inkscape:path-effect="#path-effect4824-9-9"
       inkscape:original-d="m 25.833503,229.81062 c 2.457498,-6.79617 5.091124,-13.68026 7.636288,-20.51999 2.545165,-6.83974 9.348875,-3.26346 14.022917,-4.8948" />
  </g>
</svg>
